<?xml version="1.0" encoding="UTF-8"?><svg id="a" xmlns="http://www.w3.org/2000/svg" width="1080" height="1080" viewBox="0 0 1080 1080"><path d="M28.95,319.48l17.18,55.13h-5.12l-4.43-14.51H14.98l-4.35,14.51h-4.89l17.41-55.13h5.8ZM35.29,355.98l-9.39-31.15h-.15l-9.32,31.15h18.86Z" fill="#231f20" stroke-width="0"/><path d="M89.05,369.73l-.15.08c-1.17,1.83-2.52,3.22-4.05,4.16-1.53.94-3.44,1.41-5.73,1.41-2.8,0-4.99-.62-6.57-1.87-1.58-1.25-2.75-2.84-3.51-4.77-.76-1.93-1.23-4.1-1.41-6.49-.18-2.39-.27-4.71-.27-6.95,0-1.22.01-2.57.04-4.05.03-1.48.15-2.95.38-4.43.23-1.48.58-2.91,1.07-4.31.48-1.4,1.16-2.63,2.02-3.7.87-1.07,1.97-1.92,3.32-2.56,1.35-.64,3.02-.95,5-.95,1.78,0,3.49.39,5.12,1.18,1.63.79,3.03,1.92,4.2,3.4l.15.08v-20.46h4.58v47.49c0,1.94.05,3.53.15,4.77.1,1.25.2,2.2.31,2.86h-4.43l-.23-4.89ZM80.34,371.71c1.07,0,2.11-.23,3.13-.69,1.02-.46,1.92-1.21,2.71-2.25.79-1.04,1.42-2.38,1.91-4.01.48-1.63.73-3.61.73-5.96v-6.87c0-.36-.01-.94-.04-1.76-.03-.81-.11-1.69-.27-2.63-.15-.94-.41-1.92-.76-2.94-.36-1.02-.85-1.95-1.49-2.79-.64-.84-1.45-1.53-2.44-2.06-.99-.53-2.2-.8-3.63-.8-2.09,0-3.68.43-4.77,1.3-1.1.87-1.91,2.05-2.44,3.55-.53,1.5-.84,3.26-.92,5.27-.08,2.01-.11,4.14-.11,6.38,0,3.62.2,6.49.61,8.63.41,2.14.98,3.77,1.72,4.89.74,1.12,1.63,1.86,2.67,2.21,1.04.36,2.18.53,3.4.53Z" fill="#231f20" stroke-width="0"/><path d="M103.7,325.29v-5.8h5.65v5.8h-5.65ZM104.24,374.61v-38.56h4.58v38.56h-4.58Z" fill="#231f20" stroke-width="0"/><path d="M129.97,368.81h.15l9.39-32.76h4.43l-11.45,38.56h-5.27l-11.45-38.56h4.96l9.24,32.76Z" fill="#231f20" stroke-width="0"/><path d="M150.36,325.29v-5.8h5.65v5.8h-5.65ZM150.89,374.61v-38.56h4.58v38.56h-4.58Z" fill="#231f20" stroke-width="0"/><path d="M187.93,364.46c0,3.67-.99,6.4-2.97,8.21-1.98,1.81-4.77,2.71-8.37,2.71-4.16,0-7.13-1-8.91-3.02-1.78-2.01-2.64-5.08-2.59-9.2h4.58c0,1.32.09,2.52.27,3.59.18,1.07.53,1.99,1.07,2.75.53.76,1.26,1.36,2.18,1.79.92.43,2.11.65,3.59.65,2.24,0,3.89-.6,4.96-1.79,1.07-1.2,1.6-2.86,1.6-5,0-1.68-.43-3.05-1.3-4.12-.87-1.07-1.94-2-3.21-2.79-1.27-.79-2.66-1.53-4.16-2.21-1.5-.69-2.89-1.5-4.16-2.44-1.27-.94-2.34-2.09-3.21-3.44-.87-1.35-1.3-3.09-1.3-5.23,0-1.78.29-3.28.88-4.51.58-1.22,1.39-2.21,2.41-2.98,1.02-.76,2.24-1.31,3.67-1.64,1.42-.33,2.98-.5,4.66-.5,1.88,0,3.47.31,4.77.92,1.3.61,2.34,1.43,3.13,2.44.79,1.02,1.35,2.2,1.68,3.55.33,1.35.5,2.76.5,4.24h-4.51c-.1-2.44-.6-4.3-1.49-5.57-.89-1.27-2.63-1.91-5.23-1.91-1.63,0-3.02.5-4.16,1.49-1.15.99-1.72,2.36-1.72,4.09,0,1.58.43,2.88,1.3,3.89.87,1.02,1.93,1.91,3.21,2.67,1.27.76,2.66,1.49,4.16,2.18,1.5.69,2.89,1.5,4.16,2.44,1.27.94,2.34,2.1,3.21,3.47.86,1.37,1.3,3.13,1.3,5.27Z" fill="#231f20" stroke-width="0"/><path d="M197.01,325.29v-5.8h5.65v5.8h-5.65ZM197.55,374.61v-38.56h4.58v38.56h-4.58Z" fill="#231f20" stroke-width="0"/><path d="M225.26,375.38c-4.53,0-7.88-1.39-10.04-4.16-2.16-2.77-3.25-6.68-3.25-11.72v-8.32c0-5.04,1.08-8.95,3.25-11.72,2.16-2.77,5.51-4.16,10.04-4.16s7.88,1.39,10.04,4.16c2.16,2.78,3.25,6.68,3.25,11.72v8.32c0,5.04-1.08,8.95-3.25,11.72-2.16,2.78-5.51,4.16-10.04,4.16ZM225.26,338.95c-1.88,0-3.4.38-4.54,1.15-1.15.76-2.02,1.86-2.63,3.28-.61,1.43-1.02,3.14-1.22,5.15-.2,2.01-.31,4.26-.31,6.76s.1,4.82.31,6.83c.2,2.01.61,3.73,1.22,5.15.61,1.43,1.49,2.52,2.63,3.28s2.66,1.15,4.54,1.15,3.4-.38,4.54-1.15,2.02-1.86,2.63-3.28c.61-1.42,1.02-3.14,1.22-5.15.2-2.01.31-4.29.31-6.83s-.1-4.75-.31-6.76c-.2-2.01-.61-3.73-1.22-5.15-.61-1.42-1.49-2.52-2.63-3.28-1.15-.76-2.66-1.15-4.54-1.15Z" fill="#231f20" stroke-width="0"/><path d="M251.45,374.61h-4.58v-38.56h4.58v4.73h.15c1.12-1.63,2.43-2.95,3.93-3.97,1.5-1.02,3.3-1.53,5.38-1.53,2.39,0,4.29.39,5.69,1.18,1.4.79,2.46,1.78,3.17,2.98.71,1.2,1.17,2.51,1.37,3.93.2,1.43.31,2.78.31,4.05v27.18h-4.58v-26.95c0-1.12-.11-2.2-.34-3.25-.23-1.04-.62-1.97-1.18-2.79-.56-.81-1.3-1.46-2.21-1.95-.92-.48-2.04-.73-3.36-.73-1.02,0-2.02.19-3.02.57-.99.38-1.88,1.02-2.67,1.91-.79.89-1.43,2.07-1.91,3.55-.48,1.48-.73,3.28-.73,5.42v24.21Z" fill="#231f20" stroke-width="0"/><path d="M310.02,375.38c-4.53,0-7.88-1.39-10.04-4.16-2.16-2.77-3.25-6.68-3.25-11.72v-8.32c0-5.04,1.08-8.95,3.25-11.72,2.16-2.77,5.51-4.16,10.04-4.16s7.88,1.39,10.04,4.16c2.16,2.78,3.25,6.68,3.25,11.72v8.32c0,5.04-1.08,8.95-3.25,11.72-2.16,2.78-5.51,4.16-10.04,4.16ZM310.02,338.95c-1.88,0-3.4.38-4.54,1.15-1.15.76-2.02,1.86-2.63,3.28-.61,1.43-1.02,3.14-1.22,5.15-.2,2.01-.31,4.26-.31,6.76s.1,4.82.31,6.83c.2,2.01.61,3.73,1.22,5.15.61,1.43,1.49,2.52,2.63,3.28s2.66,1.15,4.54,1.15,3.4-.38,4.54-1.15,2.02-1.86,2.63-3.28c.61-1.42,1.02-3.14,1.22-5.15.2-2.01.31-4.29.31-6.83s-.1-4.75-.31-6.76c-.2-2.01-.61-3.73-1.22-5.15-.61-1.42-1.49-2.52-2.63-3.28-1.15-.76-2.66-1.15-4.54-1.15Z" fill="#231f20" stroke-width="0"/><path d="M334.6,339.72h-6.19v-3.67h6.19v-6.49c0-.92.08-1.97.23-3.17.15-1.2.55-2.33,1.18-3.4.64-1.07,1.62-1.97,2.94-2.71,1.32-.74,3.16-1.11,5.5-1.11.36,0,.74.03,1.15.08.41.05.89.13,1.45.23v3.82h-3.44c-1.12,0-1.97.22-2.56.65-.59.43-1.02.97-1.3,1.6-.28.64-.45,1.31-.5,2.02-.05.71-.08,1.35-.08,1.91v6.57h7.79v3.67h-7.79v34.9h-4.58v-34.9Z" fill="#231f20" stroke-width="0"/><path d="M386.14,375.68c-2.75,0-5.07-.36-6.95-1.07-1.88-.71-3.45-1.72-4.7-3.02-1.25-1.3-2.2-2.84-2.86-4.62-.66-1.78-1.16-3.74-1.49-5.88-.33-2.14-.52-4.39-.57-6.76-.05-2.37-.08-4.8-.08-7.29s.03-4.93.08-7.29c.05-2.37.24-4.62.57-6.76.33-2.14.83-4.1,1.49-5.88.66-1.78,1.62-3.32,2.86-4.62,1.25-1.3,2.81-2.3,4.7-3.02,1.88-.71,4.2-1.07,6.95-1.07,3.36,0,5.96.6,7.79,1.79,1.83,1.2,3.18,2.63,4.05,4.31.87,1.68,1.37,3.44,1.53,5.27.15,1.83.23,3.36.23,4.58h-4.89c0-1.53-.13-3-.38-4.43-.26-1.42-.7-2.68-1.34-3.78-.64-1.09-1.53-1.97-2.67-2.63-1.15-.66-2.58-.99-4.31-.99-2.9,0-5.14.59-6.72,1.76-1.58,1.17-2.75,2.84-3.51,5-.76,2.16-1.21,4.75-1.34,7.75-.13,3-.19,6.34-.19,10s.06,7,.19,10c.13,3,.57,5.59,1.34,7.75.76,2.16,1.93,3.83,3.51,5,1.58,1.17,3.82,1.76,6.72,1.76,1.58,0,2.93-.33,4.05-.99,1.12-.66,2.02-1.57,2.71-2.71s1.2-2.49,1.53-4.05c.33-1.55.5-3.22.5-5h5.19c0,1.02-.11,2.46-.34,4.31-.23,1.86-.81,3.73-1.76,5.61-.94,1.88-2.34,3.51-4.2,4.89-1.86,1.37-4.42,2.06-7.67,2.06Z" fill="#231f20" stroke-width="0"/><path d="M407.91,347.05c0-2.49.03-4.93.08-7.29.05-2.37.24-4.62.57-6.76.33-2.14.83-4.1,1.49-5.88.66-1.78,1.62-3.32,2.86-4.62,1.25-1.3,2.81-2.3,4.7-3.02,1.88-.71,4.2-1.07,6.95-1.07s5.06.36,6.95,1.07c1.88.71,3.45,1.72,4.7,3.02,1.25,1.3,2.2,2.84,2.86,4.62.66,1.78,1.16,3.74,1.49,5.88.33,2.14.52,4.39.57,6.76.05,2.37.08,4.8.08,7.29s-.03,4.93-.08,7.29c-.05,2.37-.24,4.62-.57,6.76-.33,2.14-.83,4.1-1.49,5.88-.66,1.78-1.62,3.32-2.86,4.62-1.25,1.3-2.81,2.3-4.7,3.02-1.88.71-4.2,1.07-6.95,1.07s-5.07-.36-6.95-1.07c-1.88-.71-3.45-1.72-4.7-3.02-1.25-1.3-2.2-2.84-2.86-4.62-.66-1.78-1.16-3.74-1.49-5.88-.33-2.14-.52-4.39-.57-6.76-.05-2.37-.08-4.8-.08-7.29ZM412.79,347.05c0,3.67.06,7,.19,10,.13,3,.57,5.59,1.34,7.75.76,2.16,1.93,3.83,3.51,5,1.58,1.17,3.82,1.76,6.72,1.76s5.14-.58,6.72-1.76c1.58-1.17,2.75-2.84,3.51-5,.76-2.16,1.21-4.75,1.34-7.75.13-3,.19-6.34.19-10s-.06-7-.19-10c-.13-3-.57-5.59-1.34-7.75-.76-2.16-1.94-3.83-3.51-5-1.58-1.17-3.82-1.76-6.72-1.76s-5.14.59-6.72,1.76c-1.58,1.17-2.75,2.84-3.51,5-.76,2.16-1.21,4.75-1.34,7.75-.13,3-.19,6.34-.19,10Z" fill="#231f20" stroke-width="0"/><path d="M455.86,347.89v26.73h-4.89v-55.13h15.2c2.65,0,4.84.23,6.57.69,1.73.46,3.09,1.21,4.09,2.25.99,1.04,1.68,2.41,2.06,4.09s.57,3.74.57,6.19c0,1.73-.1,3.31-.31,4.73-.2,1.43-.61,2.69-1.22,3.78-.61,1.1-1.48,2.04-2.6,2.83-1.12.79-2.6,1.39-4.43,1.79v.15c1.93.41,3.45.87,4.54,1.37,1.09.51,1.91,1.49,2.44,2.94.53,1.45.87,3.56.99,6.34.13,2.78.19,6.63.19,11.57,0,1.07.06,2.14.19,3.21.13,1.07.24,2.14.34,3.21h-4.66c-.1-.41-.2-1.21-.31-2.41-.1-1.2-.18-2.51-.23-3.93-.05-1.42-.1-2.83-.15-4.2-.05-1.37-.08-2.44-.08-3.21,0-.61.01-1.63.04-3.05.03-1.42-.19-2.88-.65-4.35-.46-1.48-1.32-2.77-2.6-3.89-1.27-1.12-3.23-1.68-5.88-1.68h-9.24ZM455.86,343.76h7.94c1.83,0,3.42-.15,4.77-.46,1.35-.31,2.47-.87,3.36-1.68.89-.81,1.55-1.95,1.99-3.4.43-1.45.65-3.32.65-5.61,0-1.88-.19-3.41-.57-4.58-.38-1.17-.93-2.09-1.64-2.75-.71-.66-1.62-1.11-2.71-1.34-1.1-.23-2.36-.34-3.78-.34h-10v20.16Z" fill="#231f20" stroke-width="0"/><path d="M512.82,333.46c-.05-1.68-.22-3.19-.5-4.54-.28-1.35-.76-2.49-1.45-3.44-.69-.94-1.62-1.67-2.79-2.18-1.17-.51-2.7-.76-4.58-.76-3,0-5.37.61-7.1,1.83-1.73,1.22-2.6,3.46-2.6,6.72,0,2.04.24,3.64.73,4.81.48,1.17,1.18,2.18,2.1,3.02.92.84,2.01,1.62,3.28,2.33,1.27.71,2.7,1.63,4.28,2.75,1.68,1.22,3.35,2.29,5,3.21,1.65.92,3.13,1.96,4.43,3.13,1.3,1.17,2.34,2.58,3.13,4.24.79,1.65,1.18,3.81,1.18,6.45,0,4.94-1.23,8.62-3.7,11.03-2.47,2.42-6.12,3.63-10.96,3.63-5.4,0-9.33-1.41-11.8-4.24-2.47-2.83-3.58-6.94-3.32-12.33h5.04c0,1.53.08,3.03.23,4.51.15,1.48.56,2.81,1.22,4.01.66,1.2,1.69,2.15,3.09,2.86,1.4.71,3.32,1.07,5.77,1.07,3.21,0,5.6-.83,7.18-2.48,1.58-1.65,2.37-4.09,2.37-7.29,0-1.88-.31-3.46-.92-4.73-.61-1.27-1.46-2.43-2.56-3.47-1.1-1.04-2.44-2.05-4.05-3.02-1.6-.97-3.4-2.06-5.38-3.28-2.7-1.63-4.79-3.09-6.26-4.39-1.48-1.3-2.58-2.53-3.32-3.7-.74-1.17-1.2-2.33-1.37-3.47-.18-1.15-.27-2.41-.27-3.78,0-2.39.36-4.44,1.07-6.15.71-1.7,1.72-3.1,3.02-4.2,1.3-1.09,2.88-1.9,4.73-2.41,1.86-.51,3.91-.76,6.15-.76,2.85,0,5.18.41,6.99,1.22,1.81.81,3.22,1.92,4.24,3.32,1.02,1.4,1.72,3,2.1,4.81.38,1.81.57,3.7.57,5.69h-4.96Z" fill="#231f20" stroke-width="0"/><path d="M546.34,319.48l17.18,55.13h-5.12l-4.43-14.51h-21.61l-4.35,14.51h-4.89l17.41-55.13h5.8ZM552.68,355.98l-9.39-31.15h-.15l-9.32,31.15h18.86Z" fill="#231f20" stroke-width="0"/><path d="M575.51,319.48v55.13h-4.89v-55.13h4.89Z" fill="#231f20" stroke-width="0"/><path d="M591.62,347.89v26.73h-4.89v-55.13h15.2c2.65,0,4.84.23,6.57.69,1.73.46,3.09,1.21,4.09,2.25.99,1.04,1.68,2.41,2.06,4.09.38,1.68.57,3.74.57,6.19,0,1.73-.1,3.31-.31,4.73-.2,1.43-.61,2.69-1.22,3.78-.61,1.1-1.48,2.04-2.6,2.83-1.12.79-2.6,1.39-4.43,1.79v.15c1.93.41,3.45.87,4.54,1.37,1.09.51,1.91,1.49,2.44,2.94.53,1.45.87,3.56.99,6.34.13,2.78.19,6.63.19,11.57,0,1.07.06,2.14.19,3.21.13,1.07.24,2.14.34,3.21h-4.66c-.1-.41-.2-1.21-.31-2.41-.1-1.2-.18-2.51-.23-3.93-.05-1.42-.1-2.83-.15-4.2-.05-1.37-.08-2.44-.08-3.21,0-.61.01-1.63.04-3.05.03-1.42-.19-2.88-.65-4.35-.46-1.48-1.32-2.77-2.6-3.89-1.27-1.12-3.23-1.68-5.88-1.68h-9.24ZM591.62,343.76h7.94c1.83,0,3.42-.15,4.77-.46,1.35-.31,2.47-.87,3.36-1.68.89-.81,1.55-1.95,1.99-3.4.43-1.45.65-3.32.65-5.61,0-1.88-.19-3.41-.57-4.58-.38-1.17-.93-2.09-1.64-2.75-.71-.66-1.62-1.11-2.71-1.34-1.1-.23-2.36-.34-3.78-.34h-10v20.16Z" fill="#231f20" stroke-width="0"/><path d="M913.2,510.27l-.42-.32-68.48-39.15-34.28,19.75v152.55l34.33,19.56,97.07-55.95-33.34-19.06-64.75,37.32v-116.53l187.83,107.47-.11.68c-10.15,30.7-29.36,57.12-55.55,76.39-26.73,19.67-58.42,30.07-91.62,30.07-85.47,0-155-69.53-155-155s69.53-155,155-155c65.45,0,124.16,41.5,146.09,103.28,1.63,4.58,3.05,9.3,4.24,14.03l34.39-19.93c-1.47-4.71-3.13-9.4-4.94-13.95-14.16-35.57-38.36-65.91-69.97-87.76-32.36-22.36-70.33-34.18-109.81-34.18-51.69,0-100.28,20.13-136.83,56.68-36.55,36.55-56.68,85.14-56.68,136.83s20.13,100.28,56.68,136.84c36.55,36.55,85.14,56.68,136.83,56.68,45.76,0,90.16-16.28,125.01-45.83,34.28-29.07,57.46-69.29,65.37-113.29l-161.06-92.19Z" fill="#231f20" stroke-width="0"/><path d="M87.04,610.33c-.31,5.61-.15,12.37-5.81,20.52-4.27,6.15-10.38,10.48-22.99,10.48s-17.59-5.68-21.1-10.38c-6.15-8.23-7.44-21.48-7.44-38.46h80.68c-.34-26.53,1.26-51.52-10.72-67.69-9.75-13.16-23.4-17.32-41.43-17.32s-29.99,3.64-40.77,17.48c-12.36,15.88-11.57,42.43-11.57,47.13,0,3.76-.03,19.21-.03,28.02,0,24.33,3.47,35.08,10.93,44.48,10.66,13.43,25.85,17.07,41.44,17.07s32.48-3.67,41.98-17.01c6.52-9.15,10-20.03,10.25-34.34h-23.44ZM33.84,540.41c4.38-8.75,11.26-12.62,24.24-12.62s19.85,3.87,24.23,12.62c4.47,8.94,4.4,26.74,4.4,31.54H29.62c0-4.81-.26-22.6,4.21-31.54Z" fill="#231f20" stroke-width="0"/><polygon points="135.37 661.11 159.06 647.47 159.06 473.47 135.37 473.47 135.37 661.11" fill="#231f20" stroke-width="0"/><path d="M263.62,520.81c-9.62-9.47-22.33-13.41-32.24-13.41-11.72,0-26.6,3.58-36.54,17.16-11.4,15.58-10.67,41.64-10.67,46.25,0,3.69-.03,18.86-.03,27.5,0,23.88,3.2,34.43,10.08,43.65,9.83,13.18,23.27,16.76,37.16,16.76,10.75,0,21.73-3.26,31-11.55v17.69c.18,12.31-.18,21.65-4.6,27.65-4.46,6.05-12.74,10.39-20.38,10.39s-15.44-3.83-19.74-9.96c-3.72-5.3-4.84-9.98-5.55-19.58h-23.41c0,14.27,3.48,25.19,10,34.34,9.51,13.34,26.84,17.17,38.83,17.17s24.26-1.86,36.05-14.33c11.39-12.05,12.49-23.79,12.49-44.69v-155.53s-22.46,0-22.46,0v10.47ZM257.94,622.69c-3.93,9.41-12.05,15.64-23.05,15.64s-17.84-3.48-22.3-14.61c-4.55-11.35-4.86-22.51-4.86-39.61v-2.13c0-17.11-.44-26.95,4.1-38.31,4.46-11.13,11.73-15.92,23.05-15.92,12,0,19.63,7.3,23.56,16.71,4.72,11.28,3.8,31.32,3.8,37.51v2.13c0,6.19.41,27.3-4.31,38.58Z" fill="#231f20" stroke-width="0"/><path d="M603.41,644.19c12.26-15.88,11.47-42.45,11.47-47.15v-24.98c0-4.7.78-31.27-11.47-47.15-10.68-13.85-26.34-17.49-40.65-17.49s-29.51,3.65-40.19,17.49c-12.26,15.88-11.47,42.45-11.47,47.15v24.98c0,4.7-.78,31.27,11.47,47.15,10.68,13.85,25.88,17.49,40.19,17.49s29.97-3.65,40.65-17.49ZM591.11,597.09c0,4.81-.82,21.44-5.09,30.38-4.18,8.75-10.23,13.8-22.98,13.8s-18.88-5.05-23.06-13.8c-4.27-8.94-5.09-25.57-5.09-30.38v-25.17c0-4.81.82-21.44,5.09-30.38,4.18-8.75,10.31-13.8,23.06-13.8s18.8,5.05,22.98,13.8c4.27,8.94,5.09,25.57,5.09,30.38v25.17Z" fill="#231f20" stroke-width="0"/><path d="M471.73,467.38l-23.7,13.64v29.38h-23.64v20.59h23.64v85.81l-.03,10.03c0,29.12,16.04,32.96,32.73,32.96,7.21,0,19.15-2.85,19.15-2.85v-20.22s-10.99,1.33-16.59,1.85c-6.8.64-11.57-2.73-11.57-9.42v-12.36s.01-85.81.01-85.81h28.14v-20.59h-28.14v-43.01Z" fill="#231f20" stroke-width="0"/><path d="M363.54,507.41c-15.59,0-31.43,3.66-42,17.01-5.87,7.43-7.92,15.2-8.59,27.63h23.91c.36-5.85,1.34-11.28,4.11-15.36,4.2-6.19,12.13-8.93,21.3-8.93,12.61,0,19.15,3.49,22.64,12.59,3.23,8.43,2.55,21.5,2.55,26.57,0,0-10.76.1-14.56.16-9.95.16-63.85-.72-63.85,47.85,0,31.35,17.88,46.74,42.33,46.74,18.03,0,29.93-7.35,37.3-14.65v11.71h22.55v-97.96c.12-18.62-.11-27.68-6.24-36.28-10.75-15.09-25.86-17.08-41.45-17.08ZM355.86,641.31c-16.86,0-22.21-13.11-22.21-25.87,0-27.21,27.84-27.24,32.47-27.37,8.85-.26,21.32-.58,21.32-.58,0,0,.18,9.2.18,21.33s-10.44,32.49-31.76,32.49Z" fill="#231f20" stroke-width="0"/></svg>